<svg id="Layer_1" data-name="Layer 1" xmlns="http://www.w3.org/2000/svg" viewBox="0 0 975.53 584.87"><defs><style>.cls-1{fill:#f1f1f1;}.cls-10,.cls-11,.cls-12,.cls-13,.cls-14,.cls-15,.cls-16,.cls-2,.cls-29,.cls-4,.cls-6,.cls-7,.cls-9{fill:none;}.cls-2{stroke:orange;}.cls-10,.cls-11,.cls-12,.cls-13,.cls-14,.cls-15,.cls-16,.cls-2,.cls-4,.cls-6,.cls-7,.cls-9{stroke-width:3px;}.cls-3,.cls-30{fill:orange;}.cls-4{stroke:#1e90ff;}.cls-31,.cls-5{fill:#1e90ff;}.cls-10,.cls-11,.cls-12,.cls-13,.cls-14,.cls-15,.cls-16,.cls-6,.cls-7,.cls-9{stroke:#ff4500;}.cls-7{stroke-dasharray:8.01 2;}.cls-32,.cls-8{fill:#ff4500;}.cls-9{stroke-dasharray:8.04 2.01;}.cls-10{stroke-dasharray:8.15 2.04;}.cls-11{stroke-dasharray:7.94 1.98;}.cls-12{stroke-dasharray:8.02 2.01;}.cls-13{stroke-dasharray:7.89 1.97;}.cls-14{stroke-dasharray:7.94 1.98;}.cls-15{stroke-dasharray:7.9 1.97;}.cls-16{stroke-dasharray:7.77 1.94;}.cls-17,.cls-21{font-size:12px;font-family:MyriadPro-Regular, Myriad Pro;}.cls-18{letter-spacing:-0.01em;}.cls-19{letter-spacing:-0.01em;}.cls-20{letter-spacing:0em;}.cls-21{letter-spacing:0.01em;}.cls-22{letter-spacing:0em;}.cls-23{letter-spacing:-0.01em;}.cls-24{letter-spacing:0em;}.cls-25{letter-spacing:0em;}.cls-26{letter-spacing:0.01em;}.cls-27{letter-spacing:-0.01em;}.cls-28{letter-spacing:0em;}.cls-29{stroke:gray;}.cls-30,.cls-31,.cls-32,.cls-33{isolation:isolate;}.cls-30,.cls-31,.cls-32{font-size:17.42px;font-family:ArialMT, Arial;}.cls-33{font-size:18px;font-family:Menlo-Regular, Menlo;}.cls-34{fill:#292929;}</style></defs><title>M+E.graph.figure</title><path id="outline" class="cls-1" d="M197.58,197.74c5.71,20.43,38.29,11,138.79,45.24,75.47,25.72,144.5,49.24,209.49,104.55,17.09,14.55,43.85,39.71,88.74,69.4,48.76,32.24,67.44,35.93,77,37,35.37,4,76.83-7.46,105.48-34.49C863,376.17,837.75,339.82,880.74,293c41.89-45.59,85.84-32.84,102.14-72.83s-14.11-86.55-18.42-92.93C933.85,81.88,881.72,67.12,778.6,49.4,628.09,23.53,552.83,10.6,505.67,16.74,337.56,38.66,184.52,151,197.58,197.74Z" transform="translate(-12.13 -15.23)"/><g id="edges"><line class="cls-2" x1="354.6" y1="556.35" x2="63.22" y2="485.77"/><path class="cls-3" d="M78,501.64l1.92,6-.21.08-7.74-5.48-8.47-4.14,9.43.2L82.28,497l.15.13Z" transform="translate(-12.13 -15.23)"/><line class="cls-2" x1="358.59" y1="551.33" x2="316.9" y2="468.06"/><path class="cls-3" d="M330.24,485.7l-3.37,5.36-.19-.11-.81-9.45-2.31-9.14,5.93,7.33,7.08,6.31v.21Z" transform="translate(-12.13 -15.23)"/><line class="cls-4" x1="367.55" y1="552.91" x2="447.75" y2="477.32"/><path class="cls-5" d="M457.92,494.39l-6.1-1.67.05-.22,8.81-3.5,8.09-4.84L463.46,492l-4,8.59-.2.06Z" transform="translate(-12.13 -15.23)"/><line class="cls-6" x1="368.92" y1="560.95" x2="372.55" y2="559.27"/><line class="cls-7" x1="374.37" y1="558.43" x2="682.73" y2="416.22"/><line class="cls-6" x1="683.64" y1="415.8" x2="687.27" y2="414.13"/><path class="cls-8" d="M697,430.49,691.71,427l.11-.19,9.47-.51,9.21-2-7.51,5.7-6.54,6.87h-.2Z" transform="translate(-12.13 -15.23)"/><line class="cls-2" x1="50.73" y1="474.91" x2="72.52" y2="393.5"/><path class="cls-3" d="M84,411.33l-6.07,1.78-.07-.21,5.66-7.61,4.34-8.37-.42,9.42,1.1,9.42-.14.15Z" transform="translate(-12.13 -15.23)"/><line class="cls-4" x1="56.01" y1="477.95" x2="850.92" y2="223.83"/><path class="cls-5" d="M860.49,239.88l-4.78-4.14.14-.17,9.46.65,9.39-.88-8.16,4.74-7.33,6-.2,0Z" transform="translate(-12.13 -15.23)"/><line class="cls-6" x1="56.01" y1="482.95" x2="59.82" y2="481.73"/><line class="cls-9" x1="61.74" y1="481.12" x2="846.16" y2="230.36"/><line class="cls-6" x1="847.11" y1="230.05" x2="850.92" y2="228.83"/><path class="cls-8" d="M860.49,244.88l-4.78-4.14.14-.17,9.46.65,9.39-.88-8.16,4.74-7.33,6-.2,0Z" transform="translate(-12.13 -15.23)"/><line class="cls-2" x1="302.99" y1="452.41" x2="90.53" y2="383.7"/><path class="cls-3" d="M105.22,399.76l1.46,6.16-.21.06-7.31-6L91,395.17l9.39.91,9.46-.62.15.14Z" transform="translate(-12.13 -15.23)"/><line class="cls-4" x1="306.11" y1="448.35" x2="268" y2="389.27"/><path class="cls-5" d="M281.59,406.77l-2.76,5.69-.2-.09-1.84-9.3q-1.64-4.43-3.29-8.84l6.7,6.64,7.72,5.51,0,.2Z" transform="translate(-12.13 -15.23)"/><line class="cls-6" x1="315.36" y1="449.11" x2="318.05" y2="446.15"/><line class="cls-10" x1="319.41" y1="444.64" x2="469.26" y2="279.3"/><line class="cls-6" x1="469.94" y1="278.54" x2="472.63" y2="275.58"/><path class="cls-8" d="M483,292.81l-6.21-1.2,0-.21,8.51-4.18,7.69-5.47-4.68,8.19L485,298.82l-.19.07Z" transform="translate(-12.13 -15.23)"/><line class="cls-2" x1="460.49" y1="459.73" x2="475.07" y2="403.65"/><path class="cls-3" d="M486.52,421.48l-6.06,1.83-.07-.21,5.6-7.65q2.14-4.2,4.28-8.41-.18,4.72-.35,9.43l1.17,9.41L491,426Z" transform="translate(-12.13 -15.23)"/><line class="cls-2" x1="451.64" y1="463.96" x2="273.48" y2="382.93"/><path class="cls-3" d="M288.06,399.28l.76,6.28-.22,0L282,398.76l-7.54-5.66,9.22,2,9.47.46.13.16Z" transform="translate(-12.13 -15.23)"/><line class="cls-4" x1="464.93" y1="464.13" x2="685.42" y2="404.77"/><path class="cls-5" d="M694.94,420.7l-4.58-4.37.15-.16,9.42,1.09,9.42-.44L701,421.17l-7.6,5.67-.2,0Z" transform="translate(-12.13 -15.23)"/><line class="cls-6" x1="463.93" y1="469.13" x2="467.8" y2="468.09"/><line class="cls-11" x1="469.71" y1="467.57" x2="679.6" y2="411.06"/><line class="cls-6" x1="680.55" y1="410.81" x2="684.42" y2="409.77"/><path class="cls-8" d="M693.94,425.7l-4.58-4.37.15-.16,9.42,1.09,9.42-.44L700,426.17l-7.6,5.67-.2,0Z" transform="translate(-12.13 -15.23)"/><line class="cls-2" x1="705.91" y1="396.26" x2="855.08" y2="232.31"/><path class="cls-3" d="M865.4,249.53l-6.21-1.2,0-.22,8.52-4.17,7.7-5.44-4.7,8.17-3.34,8.88-.19.07Z" transform="translate(-12.13 -15.23)"/><line class="cls-2" x1="700.56" y1="394.28" x2="698.73" y2="332.48"/><path class="cls-3" d="M710.94,350.4l-5.31,3.45-.13-.18,3.24-8.92c.59-3.09,1.17-6.17,1.75-9.26.77,3.05,1.54,6.09,2.3,9.14l3.76,8.71-.08.19Z" transform="translate(-12.13 -15.23)"/><line class="cls-2" x1="694.33" y1="397.84" x2="495.21" y2="272.48"/><path class="cls-3" d="M509.62,289.15l-.1,6.32h-.22l-5.59-7.66L497,281.2l8.88,3.19,9.32,1.74.11.17Z" transform="translate(-12.13 -15.23)"/><line class="cls-4" x1="78.06" y1="373.12" x2="219.97" y2="191.26"/><path class="cls-5" d="M230.44,208.61l-6.28-.73,0-.22,8.18-4.8,7.26-6q-2,4.26-4.07,8.51l-2.66,9.1-.19.09Z" transform="translate(-12.13 -15.23)"/><line class="cls-6" x1="82.06" y1="375.12" x2="84.52" y2="371.96"/><line class="cls-12" x1="85.75" y1="370.38" x2="220.89" y2="197.2"/><line class="cls-6" x1="221.51" y1="196.41" x2="223.97" y2="193.26"/><path class="cls-8" d="M234.44,210.61l-6.28-.73,0-.22,8.18-4.8,7.26-6q-2,4.26-4.07,8.51l-2.66,9.1-.19.09Z" transform="translate(-12.13 -15.23)"/><line class="cls-2" x1="858.04" y1="218.43" x2="675.24" y2="143.94"/><path class="cls-3" d="M689.86,160.19l1,6.24-.22,0-6.84-6.57L676,154.56l9.3,1.6,9.48.08.14.16Z" transform="translate(-12.13 -15.23)"/><line class="cls-2" x1="857.49" y1="220.8" x2="246.97" y2="180.51"/><path class="cls-3" d="M261.79,195.92l2.92,5.61-.19.11L256,197.56l-9.06-2.63,9.32-1.41,9-2.91.17.1Z" transform="translate(-12.13 -15.23)"/><line class="cls-2" x1="253.38" y1="372.9" x2="93.52" y2="278.54"/><path class="cls-3" d="M108,295.14l.09,6.33h-.23L102,294l-6.9-6.42,9,2.93,9.37,1.47.12.17Z" transform="translate(-12.13 -15.23)"/><line class="cls-4" x1="264.74" y1="373.34" x2="467.34" y2="271.25"/><path class="cls-5" d="M477.06,287.7l-5.37-3.35.11-.19,9.45-.84,9.13-2.34-7.31,6-6.3,7.09h-.2Z" transform="translate(-12.13 -15.23)"/><line class="cls-6" x1="266.74" y1="377.34" x2="270.32" y2="375.54"/><line class="cls-13" x1="272.08" y1="374.65" x2="464.88" y2="277.5"/><line class="cls-6" x1="465.76" y1="277.05" x2="469.34" y2="275.25"/><path class="cls-8" d="M479.06,291.7l-5.37-3.35.11-.19,9.45-.84,9.13-2.34-7.31,6-6.3,7.09h-.2Z" transform="translate(-12.13 -15.23)"/><line class="cls-2" x1="475.41" y1="262.11" x2="246.22" y2="184.31"/><path class="cls-3" d="M260.89,200.41l1.38,6.17-.22.06-7.22-6.15-8.07-4.88,9.38,1,9.47-.48.14.15Z" transform="translate(-12.13 -15.23)"/><line class="cls-2" x1="482.28" y1="256.94" x2="477.69" y2="154.54"/><path class="cls-3" d="M489.94,172.46,484.69,176l-.13-.18,3.1-9c.54-3.1,1.07-6.2,1.61-9.29.81,3,1.63,6.07,2.44,9.11l3.89,8.64-.08.19Z" transform="translate(-12.13 -15.23)"/><line class="cls-2" x1="471.51" y1="387.08" x2="94.97" y2="275.21"/><path class="cls-3" d="M109.67,291.21l1.62,6.12-.22.06-7.45-5.86L95.37,287l9.41.68,9.44-.84.15.14Z" transform="translate(-12.13 -15.23)"/><line class="cls-4" x1="486.06" y1="384.88" x2="684.14" y2="320.22"/><path class="cls-5" d="M693.71,336.29l-4.8-4.12.14-.17,9.46.59,9.39-.93-8.13,4.78-7.29,6.07-.21,0Z" transform="translate(-12.13 -15.23)"/><line class="cls-6" x1="486.06" y1="389.88" x2="489.86" y2="388.64"/><line class="cls-14" x1="491.74" y1="388.02" x2="679.4" y2="326.77"/><line class="cls-6" x1="680.34" y1="326.46" x2="684.14" y2="325.22"/><path class="cls-8" d="M693.71,341.29l-4.8-4.12.14-.17,9.46.59,9.39-.93-8.13,4.78-7.29,6.07-.21,0Z" transform="translate(-12.13 -15.23)"/><line class="cls-2" x1="696.76" y1="310.14" x2="664.46" y2="152.9"/><path class="cls-3" d="M677.12,170.77l-4.63,4.31-.15-.16,1.65-9.34c0-3.14.09-6.28.13-9.43l3.84,8.62,5.2,7.93,0,.2Z" transform="translate(-12.13 -15.23)"/><line class="cls-2" x1="703.72" y1="312.26" x2="863.14" y2="155.47"/><path class="cls-3" d="M873.35,172.59,867.21,171l0-.21,8.74-3.69,8-5-5.15,7.9L875,178.71l-.2.06Z" transform="translate(-12.13 -15.23)"/><line class="cls-2" x1="692.35" y1="312.83" x2="488.62" y2="149"/><path class="cls-3" d="M502.85,165.92l-.83,6.27-.22,0-4.67-8.25-5.91-7.35,8.45,4.19,9.06,2.8.08.18Z" transform="translate(-12.13 -15.23)"/><line class="cls-2" x1="238.87" y1="175.98" x2="495.74" y2="40.76"/><path class="cls-3" d="M505.48,57.25,500.05,54l.11-.2,9.43-1,9.09-2.5-7.2,6.08-6.17,7.2h-.21Z" transform="translate(-12.13 -15.23)"/><line class="cls-2" x1="655.17" y1="134.02" x2="521.18" y2="42.24"/><path class="cls-3" d="M535.53,59l-.35,6.32H535l-5.29-7.87-6.45-6.88L532,54.09l9.25,2.1.1.18Z" transform="translate(-12.13 -15.23)"/><line class="cls-4" x1="85.94" y1="265.58" x2="460.9" y2="141.35"/><path class="cls-5" d="M470.47,157.43l-4.82-4.09.14-.18,9.47.55,9.38-1-8.11,4.82-7.26,6.1-.21,0Z" transform="translate(-12.13 -15.23)"/><line class="cls-6" x1="87.94" y1="269.58" x2="91.73" y2="268.32"/><line class="cls-15" x1="93.61" y1="267.7" x2="458.17" y2="146.92"/><line class="cls-6" x1="459.11" y1="146.61" x2="462.9" y2="145.35"/><path class="cls-8" d="M472.47,161.43l-4.82-4.09.14-.18,9.47.55,9.38-1-8.11,4.82-7.26,6.1-.21,0Z" transform="translate(-12.13 -15.23)"/><line class="cls-2" x1="479.22" y1="132.38" x2="504.61" y2="48.08"/><path class="cls-3" d="M516,65.89l-6.12,1.59-.06-.21,5.89-7.43,4.6-8.24L519.55,61l.81,9.44-.14.15Z" transform="translate(-12.13 -15.23)"/><line class="cls-2" x1="866.46" y1="142.82" x2="523.14" y2="38.17"/><path class="cls-3" d="M537.84,54.19l1.57,6.12-.22.07-7.41-5.92-8.21-4.62,9.4.74,9.45-.78.15.15Z" transform="translate(-12.13 -15.23)"/><path class="cls-4" d="M665.16,557.06h58.49" transform="translate(-12.13 -15.23)"/><path class="cls-5" d="M721,557.06l-3.29-5.41.18-.12,8.82,3.5,9.21,2-9.21,2-8.82,3.5-.18-.09Z" transform="translate(-12.13 -15.23)"/><line x1="653.03" y1="559.74" x2="723.75" y2="559.74"/><line class="cls-6" x1="653.03" y1="559.74" x2="657.03" y2="559.74"/><line class="cls-16" x1="658.97" y1="559.74" x2="706.55" y2="559.74"/><line class="cls-6" x1="707.52" y1="559.74" x2="711.52" y2="559.74"/><path class="cls-8" d="M721,575l-3.29-5.4.18-.12,8.82,3.5,9.21,2-9.21,2-8.82,3.5-.18-.09Z" transform="translate(-12.13 -15.23)"/><line x1="653.03" y1="522.25" x2="723.75" y2="522.25"/><line class="cls-2" x1="653.03" y1="522.25" x2="711.52" y2="522.25"/><path class="cls-3" d="M721,537.48l-3.29-5.4.18-.12,8.82,3.5,9.21,2-9.21,2-8.82,3.5-.18-.09Z" transform="translate(-12.13 -15.23)"/><text class="cls-17" transform="translate(729.03 524.8)"><tspan class="cls-18">C</tspan><tspan x="6.83" y="0">oales</tspan><tspan class="cls-19" x="32.8" y="0">c</tspan><tspan class="cls-20" x="38.1" y="0">en</tspan><tspan class="cls-19" x="50.77" y="0">c</tspan><tspan x="56.08" y="0">e</tspan></text><text class="cls-21" transform="translate(729.03 546.01)">M<tspan class="cls-22" x="9.79" y="0">i</tspan><tspan class="cls-23" x="12.6" y="0">g</tspan><tspan class="cls-24" x="19.24" y="0">r</tspan><tspan class="cls-25" x="23.1" y="0">a</tspan><tspan class="cls-20" x="28.84" y="0">tion</tspan></text><text class="cls-17" transform="translate(729.03 563.5)"><tspan class="cls-26">M</tspan><tspan class="cls-20" x="9.72" y="0">ass mi</tspan><tspan class="cls-19" x="40.37" y="0">g</tspan><tspan class="cls-27" x="47" y="0">r</tspan><tspan class="cls-28" x="50.87" y="0">a</tspan><tspan x="56.6" y="0">tion (split)</tspan></text><rect class="cls-29" x="635.87" y="504.02" width="215.05" height="74.11"/></g><g id="edge-labels"><text class="cls-30" transform="translate(200.53 517.2)">1</text><text class="cls-30" transform="translate(188.46 412.94)">1</text><text class="cls-31" transform="translate(390.44 518.63)">2</text><text class="cls-31" transform="translate(464.93 341.86)">1</text><text class="cls-31" transform="translate(276.38 435.18)">2</text><text class="cls-31" transform="translate(563.84 431.94)">1</text><text class="cls-31" transform="translate(110.71 314.28)">1</text><text class="cls-31" transform="translate(355.27 319.11)">1</text><text class="cls-31" transform="translate(539.28 362.35)">1</text><text class="cls-31" transform="translate(221.04 215.73)">1</text><text class="cls-32" transform="translate(526.55 504.02)">1</text><text class="cls-32" transform="translate(478.12 364.09)">1</text><text class="cls-32" transform="translate(366.04 408.03)">1</text><text class="cls-32" transform="translate(563.84 457.36)">1</text><text class="cls-32" transform="translate(127.45 333.87)">1</text><text class="cls-32" transform="translate(363.67 341.86)">1</text><text class="cls-32" transform="translate(558.68 382.34)">1</text><text class="cls-32" transform="translate(219.97 241.76)">1</text><text class="cls-30" transform="translate(340.28 512.45)">1</text><text class="cls-30" transform="translate(48.72 437.7)">1</text><text class="cls-30" transform="translate(453.85 435.18)">2</text><text class="cls-30" transform="translate(384.41 431.94)">1</text><text class="cls-30" transform="translate(748.1 366.75)">1</text><text class="cls-30" transform="translate(702.69 366.75)">4</text><text class="cls-30" transform="translate(647.86 366.75)">1</text><text class="cls-30" transform="translate(769.44 179.81)">2</text><text class="cls-30" transform="translate(605.77 201.42)">1</text><text class="cls-30" transform="translate(189.48 333.87)">1</text><text class="cls-30" transform="translate(422.04 238.79)">1</text><text class="cls-30" transform="translate(486.07 237.23)">2</text><text class="cls-30" transform="translate(246.91 319.11)">1</text><text class="cls-30" transform="translate(694.75 296.18)">1</text><text class="cls-30" transform="translate(647.86 275.58)">1</text><text class="cls-30" transform="translate(363.67 102.68)">1</text><text class="cls-30" transform="translate(609.34 102.68)">1</text><text class="cls-30" transform="translate(478.12 102.68)">1</text><text class="cls-30" transform="translate(739.48 102.68)">1</text><text class="cls-30" transform="translate(733.24 296.18)">1</text></g><g id="node-labels"><text class="cls-33" transform="translate(301.69 578.12)">[a,a] [b,b]</text><text class="cls-33" transform="translate(0 496.95)">[aa] [b,b]</text><text class="cls-33" transform="translate(249.35 465.41)">[a,a] [bb]</text><text class="cls-33" transform="translate(419.49 479.13)">[a] [a,b,b]</text><text class="cls-33" transform="translate(662.63 396.91)">[ ] [a,a,b,b]</text><text class="cls-33" transform="translate(28.75 390.1)">[aa] [bb]</text><text class="cls-33" transform="translate(827.85 215.73)">[ ] [aa,b,b]</text><text class="cls-33" transform="translate(221.04 389.15)">[a] [a,bb]</text><text class="cls-33" transform="translate(443.4 262.11)">[ ] [a,a,bb]</text><text class="cls-33" transform="translate(439.92 401.88)">[a] [ab,b]</text><text class="cls-33" transform="translate(660.55 314.28)">[ ] [a,ab,b]</text><text class="cls-33" transform="translate(193.42 174.32)">[ ] [aa,bb]</text><text class="cls-33" transform="translate(623.15 134.02)">[ ] [aab,b]</text><text class="cls-33" transform="translate(41.5 285.58)">[a] [abb]</text><text class="cls-33" transform="translate(438.71 134.02)">[ ] [a,abb]</text><text class="cls-33" transform="translate(835.43 139.83)">[ ] [ab,ab]</text><text class="cls-33" transform="translate(470.01 28.63)">[ ] [aabb]</text></g><g id="nodes"><ellipse class="cls-34" cx="362" cy="559.2" rx="7.26" ry="7.29"/><ellipse class="cls-34" cx="48.76" cy="483.02" rx="7.26" ry="7.29"/><ellipse class="cls-34" cx="310.24" cy="455.4" rx="7.26" ry="7.29"/><ellipse class="cls-34" cx="458.58" cy="467.8" rx="7.26" ry="7.29"/><ellipse class="cls-34" cx="700.78" cy="402.32" rx="7.26" ry="7.29"/><ellipse class="cls-34" cx="76.37" cy="379.46" rx="7.26" ry="7.29"/><ellipse class="cls-34" cx="865.1" cy="221" rx="7.26" ry="7.29"/><ellipse class="cls-34" cx="259.94" cy="377.1" rx="7.26" ry="7.29"/><ellipse class="cls-34" cx="482.62" cy="264.43" rx="7.26" ry="7.29"/><ellipse class="cls-34" cx="478.81" cy="389.62" rx="7.26" ry="7.29"/><ellipse class="cls-34" cx="698.29" cy="317.69" rx="7.26" ry="7.29"/><ellipse class="cls-34" cx="232.13" cy="179.06" rx="7.26" ry="7.29"/><ellipse class="cls-34" cx="661.46" cy="137.69" rx="7.26" ry="7.29"/><ellipse class="cls-34" cx="80.7" cy="270.88" rx="7.26" ry="7.29"/><ellipse class="cls-34" cx="477.03" cy="139.04" rx="7.26" ry="7.29"/><ellipse class="cls-34" cx="873.75" cy="144.43" rx="7.53" ry="7.26"/><ellipse class="cls-34" cx="508.9" cy="32.77" rx="7.26" ry="7.29"/></g></svg>